<?xml version="1.0" encoding="UTF-8" standalone="no"?>
<!-- Created with Inkscape (http://www.inkscape.org/) -->

<svg
   xmlns:dc="http://purl.org/dc/elements/1.1/"
   xmlns:cc="http://creativecommons.org/ns#"
   xmlns:rdf="http://www.w3.org/1999/02/22-rdf-syntax-ns#"
   xmlns:svg="http://www.w3.org/2000/svg"
   xmlns="http://www.w3.org/2000/svg"
   xmlns:sodipodi="http://sodipodi.sourceforge.net/DTD/sodipodi-0.dtd"
   xmlns:inkscape="http://www.inkscape.org/namespaces/inkscape"
   version="1.1"
   id="svg80"
   width="1024"
   height="1024"
   viewBox="0 0 1024 1024"
   sodipodi:docname="scalable.svg"
   inkscape:version="0.92.3 (2405546, 2018-03-11)"
   inkscape:export-filename="/home/naikus/Projects/stage-starter/src/res/icon_high_res_1024.png"
   inkscape:export-xdpi="96"
   inkscape:export-ydpi="96">
  <metadata
     id="metadata86">
    <rdf:RDF>
      <cc:Work
         rdf:about="">
        <dc:format>image/svg+xml</dc:format>
        <dc:type
           rdf:resource="http://purl.org/dc/dcmitype/StillImage" />
        <dc:title />
      </cc:Work>
    </rdf:RDF>
  </metadata>
  <defs
     id="defs84" />
  <sodipodi:namedview
     pagecolor="#ffffff"
     bordercolor="#666666"
     borderopacity="1"
     objecttolerance="10"
     gridtolerance="10"
     guidetolerance="10"
     inkscape:pageopacity="0"
     inkscape:pageshadow="2"
     inkscape:window-width="1280"
     inkscape:window-height="739"
     id="namedview82"
     showgrid="false"
     inkscape:zoom="0.45507813"
     inkscape:cx="77.36746"
     inkscape:cy="466.04719"
     inkscape:window-x="0"
     inkscape:window-y="33"
     inkscape:window-maximized="1"
     inkscape:current-layer="svg80" />
  <g
     id="g158"
     transform="matrix(2.1877017,0,0,2.2174085,-50.931478,-49.250952)"
     inkscape:export-xdpi="96"
     inkscape:export-ydpi="96">
    <path
       inkscape:connector-curvature="0"
       id="path102"
       d="M 240.29972,483.271 C 121.92409,476.9202 17.753714,366.85358 23.508518,247.37641 24.419363,184.79584 51.568624,122.00391 100.69524,82.32209 184.03205,3.246648 328.12483,1.709485 412.20266,80.54982 c 47.48496,39.84651 77.36876,99.47907 78.88827,161.61175 3.57741,72.29876 -29.84086,144.50587 -86.67319,189.19972 -45.58252,37.02793 -105.38972,56.82342 -164.11802,51.90971 z"
       style="fill:#cbd56b;stroke-width:0.98947477" />
    <path
       sodipodi:nodetypes="ccccccccccccccccccc"
       inkscape:connector-curvature="0"
       id="path94"
       d="M 51.184354,361.82485 C 11.78134,290.08437 15.304429,197.82645 59.309739,128.92407 c 4.345372,-8.74384 14.854116,-23.38216 9.043737,-4.43793 -6.359035,39.43789 -2.240451,82.38457 21.73911,115.58424 21.359414,31.98316 58.572414,47.39535 92.148264,63.04455 22.76658,10.85656 43.80978,11.96881 64.50945,26.92125 0.63282,15.30471 -23.96708,6.68348 -35.01715,8.66679 -38.74893,-6.51873 -74.60359,-24.28883 -112.876278,-32.63741 -22.986911,2.06596 -31.10929,27.82491 -36.408341,46.70394 -3.922516,8.40831 -1.865056,30.26556 -11.264177,9.05535 z M 463.7174,353.58047 c 2.5368,-51.37982 -23.27997,-105.38877 -68.87622,-131.33826 -31.38355,-20.26148 -66.94258,-32.313 -102.6054,-42.50712 -9.85167,-1.77542 -25.43395,-13.26185 -6.06023,-14.33718 33.45127,-5.63345 65.69384,7.51425 95.9925,19.90561 17.24209,8.00615 34.53235,-4.71486 42.53511,-19.66848 10.89874,-12.67098 14.36949,-41.40713 23.51081,-46.98543 46.95573,66.6016 54.64251,158.22514 19.54743,231.73415 -2.24981,6.44 -6.20685,15.92789 -4.044,3.19671 z"
       style="fill:#36455c" />
    <path
       sodipodi:nodetypes="cccccccsccccccccccc"
       inkscape:connector-curvature="0"
       id="path92"
       d="m 462.30963,340.78088 c 0.0427,-50.01099 -28.22492,-99.16132 -72.63246,-122.73664 -31.0469,-19.36899 -66.41078,-29.39448 -100.85269,-40.6851 -8.62562,-1.30425 -19.48678,-10.58808 -4.12045,-11.47788 25.02387,-2.49073 50.58623,0.18073 73.69764,10.52541 15.86588,4.88458 33.80536,18.01169 50.04735,7.40875 18.93065,-13.26892 26.34197,-36.90373 34.26608,-57.58907 1.44229,-5.06227 3.15312,-6.74439 4.98438,-6.40712 4.63886,0.85438 13.82744,19.31931 13.82744,19.31931 42.72498,73.73688 35.30781,157.17656 2.06349,222.78672 -1.1851,-5.45125 -0.93684,-15.58978 -1.28078,-21.14438 z M 218.54934,339.0386 c -14.84447,-2.52664 -30.48703,-4.526 -43.85962,-11.70743 -18.55789,-18.26806 -37.95407,-35.70577 -57.64876,-52.68605 -9.63795,-8.88102 -18.607865,-18.58257 -25.965746,-29.4544 13.084606,12.70808 26.238396,25.61257 42.738846,33.91628 30.86808,18.54919 64.50672,31.75442 98.87164,42.16243 8.76054,1.49308 32.14482,16.15966 11.1711,17.66445 -8.40242,0.76941 -16.89931,0.81562 -25.30746,0.10472 z"
       style="fill:#2a384e" />
  </g>
</svg>
